<?xml version="1.0" encoding="UTF-8"?>
<svg viewBox="0 0 150 134.52095" xmlns="http://www.w3.org/2000/svg">
 <defs>
  <filter id="a" x="-.11242" y="-.12868" width="1.2248" height="1.2574">
   <feGaussianBlur stdDeviation="1.49992"/>
  </filter>
 </defs>
 <g transform="matrix(3.8244 0 0 3.8244 -838.56 -681.8)">
  <path d="m235.80148,181.88075c-1.70659.0803-3.16924,1.00202-4.375,3.34375-3.88006-1.49637-6.46681.81929-5.875,4.5-2.48764,1.20812-3.63203,4.9801 2,6.125-.6413,1.9221.26638,3.32787 2.625,4.25 .56657,1.81849 1.40934,3.19505 3.625,2.375 2.08058,1.93319 4.50276,1.81675 7.25-.25 2.65759.82051 5.30587.7102 7.125-2.625 1.87715-.0869 4.86471.11903 4.375-4 1.72986-1.14139 3.55418-2.69499 1.25-5 .17155-2.64969-.64958-5.57199-4.25-5.75-2.46772-3.37895-5.5334-3.43775-9.375-1.875-1.56293-.7155-3.04765-1.15619-4.375-1.09375zm-6.6875,20.96875c-.93198,0-1.6875.55964-1.6875,1.25s.75552,1.25 1.6875,1.25 1.6875-.55964 1.6875-1.25-.75552-1.25-1.6875-1.25zm-2.6875,3.25c-.65584,0-1.1875.40556-1.1875.875s.53166.84375 1.1875.84375 1.1875-.37431 1.1875-.84375-.53166-.875-1.1875-.875zm-3.03125,3.09375c-.30376,0-.53125.15597-.53125.34375s.22749.3125.53125.3125 .5625-.12472.5625-.3125-.25874-.34375-.5625-.34375z" fill="#7a7a7a" filter="url(#a)"/>
  <path d="m235.9375,179.375c-1.70659.0803-3.16924,1.00202-4.375,3.34375-3.88006-1.49637-6.46681.81929-5.875,4.5-2.48764,1.20812-3.63203,4.9801 2,6.125-.6413,1.9221.26638,3.32787 2.625,4.25 .56657,1.81849 1.40934,3.19505 3.625,2.375 2.08058,1.93319 4.50276,1.81675 7.25-.25 2.65759.82051 5.30587.7102 7.125-2.625 1.87715-.0869 4.86471.11903 4.375-4 1.72986-1.14139 3.55418-2.69499 1.25-5 .17155-2.64969-.64958-5.57199-4.25-5.75-2.46772-3.37895-5.5334-3.43775-9.375-1.875-1.56293-.7155-3.04765-1.15619-4.375-1.09375zm-6.6875,20.96875c-.93198,0-1.6875.55964-1.6875,1.25s.75552,1.25 1.6875,1.25 1.6875-.55964 1.6875-1.25-.75552-1.25-1.6875-1.25zm-2.6875,3.25c-.65584,0-1.1875.40556-1.1875.875s.53166.84375 1.1875.84375 1.1875-.37431 1.1875-.84375-.53166-.875-1.1875-.875zm-3.03125,3.09375c-.30376,0-.53125.15597-.53125.34375s.22749.3125.53125.3125 .5625-.12472.5625-.3125-.25874-.34375-.5625-.34375z" fill="#fff" stroke="#000" stroke-width=".26148"/>
 </g>
</svg>
